# xmcd CD database file
#
# Track frame offsets:
#	150
#	42961
#	87821
#	112772
#	152455
#	181896
#	198348
#	219662
#	238523
#	261403
#
# Disc length: 3668 seconds
#
# Revision: 0
# Processed by: cddbd v1.5.2PL0 Copyright (c) Steve Scherf et al.
# Submitted via: CDex 1.51
#
DISCID=7b0e520a
DTITLE=Sphinx - Speaks The Riddle Of The Undisputed Truth
DYEAR=2001
DGENRE=Jazz
TTITLE0=Disconsonant
TTITLE1=Uncle Bob
TTITLE2=Far Corner
TTITLE3=The Undisputed Truth
TTITLE4=My Reminiscence
TTITLE5=Digressions suite - Pensive Pacific
TTITLE6=Digressions suite - Mindspinning
TTITLE7=Digressions suite - A Sudden Impulse
TTITLE8=Digressions suite - A Melody In Mind
TTITLE9=Digressions suite - Closer To The End Nearer The Beginning
EXTD=YEAR: 2001
EXTT0=
EXTT1=
EXTT2=
EXTT3=
EXTT4=
EXTT5=
EXTT6=
EXTT7=
EXTT8=
EXTT9=
PLAYORDER=
